<?xml version="1.0"?><svg id="Layer_2" data-name="Layer 2" xmlns="http://www.w3.org/2000/svg" viewBox="0 0 2682.6 772.67" xmlns:c2pa="http://c2pa.org/manifest"><metadata><c2pa:manifest>AAAWgmp1bWIAAAAeanVtZGMycGEAEQAQgAAAqgA4m3EDYzJwYQAAABZcanVtYgAAAEdqdW1kYzJtYQARABCAAACqADibcQN1cm46YzJwYTpjNGQwNTY5Ny1mNGUwLTRjYjEtYWM3My04MDgxNmJhOTYzYzgAAAADl2p1bWIAAAApanVtZGMyYXMAEQAQgAAAqgA4m3EDYzJwYS5hc3NlcnRpb25zAAAAALxqdW1iAAAARGp1bWRjYm9yABEAEIAAAKoAOJtxE2MycGEuaW5ncmVkaWVudC52MwAAAAAYYzJzaO3o7fyceVpDgP4Rft4t1J0AAABwY2JvcqNpZGM6Zm9ybWF0bWltYWdlL3N2Zyt4bWxqaW5zdGFuY2VJRHgseG1wOmlpZDo3YTM2NTFjNS03YjMwLTQ4YzYtODA2Yi1hOTA1NjA1ZjUzNWJscmVsYXRpb25zaGlwaHBhcmVudE9mAAAB4mp1bWIAAABBanVtZGNib3IAEQAQgAAAqgA4m3ETYzJwYS5hY3Rpb25zLnYyAAAAABhjMnNofRxrCnuDh/WSBL+9yOuvIgAAAZljYm9yomdhY3Rpb25zgqJmYWN0aW9ua2MycGEub3BlbmVkanBhcmFtZXRlcnOha2luZ3JlZGllbnRzgaJjdXJseC1zZWxmI2p1bWJmPWMycGEuYXNzZXJ0aW9ucy9jMnBhLmluZ3JlZGllbnQudjNkaGFzaFggVWGCZwJRiYIcrYIo7BIekBMzJAnO3eqY5FTVallpSmKkZmFjdGlvbngdY29tLmFudGhyb3BpYy5jbGF1ZGUucHJvdmlkZWRqcGFyYW1ldGVyc6F4H2NvbS5hbnRocm9waWMub3JpZ2luLWNvbmZpZGVuY2VndW5rbm93bmtkZXNjcmlwdGlvbnhmQ2xhdWRlIHByb3ZpZGVkIHRoaXMgZmlsZSBhdCB0aGUgcmVxdWVzdCBvZiBhIHVzZXIgYW5kIG1heSBoYXZlIGNyZWF0ZWQgb3IgbW9kaWZpZWQgdGhlIGZpbGUgY29udGVudHMubXNvZnR3YXJlQWdlbnShZG5hbWVmQ2xhdWRlcmFsbEFjdGlvbnNJbmNsdWRlZPUAAADIanVtYgAAAEBqdW1kY2JvcgARABCAAACqADibcRNjMnBhLmhhc2guZGF0YQAAAAAYYzJzaMOuYyhrqk+twMLtJoP9BNYAAACAY2JvcqVjYWxnZnNoYTI1NmNwYWRNAAAAAAAAAAAAAAAAAGRoYXNoWCDJGf4zyePuDSzZ0oe8jQsrH3tfUJgUDih8iTQof2OIy2RuYW1lbmp1bWJmIG1hbmlmZXN0amV4Y2x1c2lvbnOBomVzdGFydBi5Zmxlbmd0aBkeBAAAAj5qdW1iAAAAJ2p1bWRjMmNsABEAEIAAAKoAOJtxA2MycGEuY2xhaW0udjIAAAACD2Nib3KlY2FsZ2ZzaGEyNTZpc2lnbmF0dXJleE1zZWxmI2p1bWJmPS9jMnBhL3VybjpjMnBhOmM0ZDA1Njk3LWY0ZTAtNGNiMS1hYzczLTgwODE2YmE5NjNjOC9jMnBhLnNpZ25hdHVyZWppbnN0YW5jZUlEeCx4bXA6aWlkOjVjMjBmNWE1LWI0YzItNDY3Ni1iNDAwLTE3ZjU3ZTMzNDg2Y3JjcmVhdGVkX2Fzc2VydGlvbnODomN1cmx4LXNlbGYjanVtYmY9YzJwYS5hc3NlcnRpb25zL2MycGEuaW5ncmVkaWVudC52M2RoYXNoWCBVYYJnAlGJghytgijsEh6QEzMkCc7d6pjkVNVqWWlKYqJjdXJseCpzZWxmI2p1bWJmPWMycGEuYXNzZXJ0aW9ucy9jMnBhLmFjdGlvbnMudjJkaGFzaFgg+trC0YumVtdl5/GmPoqK5ocFdYD+OZi+tH5+ozCzAnOiY3VybHgpc2VsZiNqdW1iZj1jMnBhLmFzc2VydGlvbnMvYzJwYS5oYXNoLmRhdGFkaGFzaFggNiwC44FNRsztX8dfAsRbIC9em21s0nvioloDUO9xJLh0Y2xhaW1fZ2VuZXJhdG9yX2luZm+jZG5hbWVvQW50aHJvcGljIEZpbGVzZ3ZlcnNpb25lMS4wLjBrc3BlY1ZlcnNpb25lMi40LjAAABA4anVtYgAAAChqdW1kYzJjcwARABCAAACqADibcQNjMnBhLnNpZ25hdHVyZQAAABAIY2JvctKEWQISogEmGCFZAgowggIGMIIBjaADAgECAhRA5aAK7sI50L64g/oGQgU9Z1UTADAKBggqhkjOPQQDAzBJMRcwFQYDVQQKEw5BbnRocm9waWMsIFBCQzEuMCwGA1UEAxMlQW50aHJvcGljIENvbnRlbnQgQ3JlZGVudGlhbHMgUm9vdCBDQTAeFw0yNjA4MDcxODQzNTZaFw0yODA4MDYxOTQzNTZaMEQxFzAVBgNVBAoTDkFudGhyb3BpYywgUEJDMSkwJwYDVQQDEyBBbnRocm9waWMgQ2xhdWRlIENvbnRlbnQgU2lnbmluZzBZMBMGByqGSM49AgEGCCqGSM49AwEHA0IABJh6CmvLUBgFFNU0vUKlOVtE6djd17L5SuwX0LemFisBM3dkd/3cyjxFA3Qo5S46fX0/ihY0VZ7mfb9KF703t5OjWDBWMA4GA1UdDwEB/wQEAwIHgDAVBgNVHSUEDjAMBgorBgEEAYPoXgIBMAwGA1UdEwEB/wQCMAAwHwYDVR0jBBgwFoAUzlHiBIFOZFsj+OPEz5o+nMHXXMIwCgYIKoZIzj0EAwMDZwAwZAIwMXMdFJ4BetLLVY7ORuE9noqbbAZOZn/aArXyTwFAZfKrPzxF2vPoJNf1+UCdg1XGAjBwX1zd9WGqYkqmL5SFqw1QySjr1zJfpJM9+1rdDwSPLMOPOjKuiXjoU/pUUeG9RwmhY3BhZFkNngAAAAAAAAAAAAAAAAAAAAAAAAAAAAAAAAAAAAAAAAAAAAAAAAAAAAAAAAAAAAAAAAAAAAAAAAAAAAAAAAAAAAAAAAAAAAAAAAAAAAAAAAAAAAAAAAAAAAAAAAAAAAAAAAAAAAAAAAAAAAAAAAAAAAAAAAAAAAAAAAAAAAAAAAAAAAAAAAAAAAAAAAAAAAAAAAAAAAAAAAAAAAAAAAAAAAAAAAAAAAAAAAAAAAAAAAAAAAAAAAAAAAAAAAAAAAAAAAAAAAAAAAAAAAAAAAAAAAAAAAAAAAAAAAAAAAAAAAAAAAAAAAAAAAAAAAAAAAAAAAAAAAAAAAAAAAAAAAAAAAAAAAAAAAAAAAAAAAAAAAAAAAAAAAAAAAAAAAAAAAAAAAAAAAAAAAAAAAAAAAAAAAAAAAAAAAAAAAAAAAAAAAAAAAAAAAAAAAAAAAAAAAAAAAAAAAAAAAAAAAAAAAAAAAAAAAAAAAAAAAAAAAAAAAAAAAAAAAAAAAAAAAAAAAAAAAAAAAAAAAAAAAAAAAAAAAAAAAAAAAAAAAAAAAAAAAAAAAAAAAAAAAAAAAAAAAAAAAAAAAAAAAAAAAAAAAAAAAAAAAAAAAAAAAAAAAAAAAAAAAAAAAAAAAAAAAAAAAAAAAAAAAAAAAAAAAAAAAAAAAAAAAAAAAAAAAAAAAAAAAAAAAAAAAAAAAAAAAAAAAAAAAAAAAAAAAAAAAAAAAAAAAAAAAAAAAAAAAAAAAAAAAAAAAAAAAAAAAAAAAAAAAAAAAAAAAAAAAAAAAAAAAAAAAAAAAAAAAAAAAAAAAAAAAAAAAAAAAAAAAAAAAAAAAAAAAAAAAAAAAAAAAAAAAAAAAAAAAAAAAAAAAAAAAAAAAAAAAAAAAAAAAAAAAAAAAAAAAAAAAAAAAAAAAAAAAAAAAAAAAAAAAAAAAAAAAAAAAAAAAAAAAAAAAAAAAAAAAAAAAAAAAAAAAAAAAAAAAAAAAAAAAAAAAAAAAAAAAAAAAAAAAAAAAAAAAAAAAAAAAAAAAAAAAAAAAAAAAAAAAAAAAAAAAAAAAAAAAAAAAAAAAAAAAAAAAAAAAAAAAAAAAAAAAAAAAAAAAAAAAAAAAAAAAAAAAAAAAAAAAAAAAAAAAAAAAAAAAAAAAAAAAAAAAAAAAAAAAAAAAAAAAAAAAAAAAAAAAAAAAAAAAAAAAAAAAAAAAAAAAAAAAAAAAAAAAAAAAAAAAAAAAAAAAAAAAAAAAAAAAAAAAAAAAAAAAAAAAAAAAAAAAAAAAAAAAAAAAAAAAAAAAAAAAAAAAAAAAAAAAAAAAAAAAAAAAAAAAAAAAAAAAAAAAAAAAAAAAAAAAAAAAAAAAAAAAAAAAAAAAAAAAAAAAAAAAAAAAAAAAAAAAAAAAAAAAAAAAAAAAAAAAAAAAAAAAAAAAAAAAAAAAAAAAAAAAAAAAAAAAAAAAAAAAAAAAAAAAAAAAAAAAAAAAAAAAAAAAAAAAAAAAAAAAAAAAAAAAAAAAAAAAAAAAAAAAAAAAAAAAAAAAAAAAAAAAAAAAAAAAAAAAAAAAAAAAAAAAAAAAAAAAAAAAAAAAAAAAAAAAAAAAAAAAAAAAAAAAAAAAAAAAAAAAAAAAAAAAAAAAAAAAAAAAAAAAAAAAAAAAAAAAAAAAAAAAAAAAAAAAAAAAAAAAAAAAAAAAAAAAAAAAAAAAAAAAAAAAAAAAAAAAAAAAAAAAAAAAAAAAAAAAAAAAAAAAAAAAAAAAAAAAAAAAAAAAAAAAAAAAAAAAAAAAAAAAAAAAAAAAAAAAAAAAAAAAAAAAAAAAAAAAAAAAAAAAAAAAAAAAAAAAAAAAAAAAAAAAAAAAAAAAAAAAAAAAAAAAAAAAAAAAAAAAAAAAAAAAAAAAAAAAAAAAAAAAAAAAAAAAAAAAAAAAAAAAAAAAAAAAAAAAAAAAAAAAAAAAAAAAAAAAAAAAAAAAAAAAAAAAAAAAAAAAAAAAAAAAAAAAAAAAAAAAAAAAAAAAAAAAAAAAAAAAAAAAAAAAAAAAAAAAAAAAAAAAAAAAAAAAAAAAAAAAAAAAAAAAAAAAAAAAAAAAAAAAAAAAAAAAAAAAAAAAAAAAAAAAAAAAAAAAAAAAAAAAAAAAAAAAAAAAAAAAAAAAAAAAAAAAAAAAAAAAAAAAAAAAAAAAAAAAAAAAAAAAAAAAAAAAAAAAAAAAAAAAAAAAAAAAAAAAAAAAAAAAAAAAAAAAAAAAAAAAAAAAAAAAAAAAAAAAAAAAAAAAAAAAAAAAAAAAAAAAAAAAAAAAAAAAAAAAAAAAAAAAAAAAAAAAAAAAAAAAAAAAAAAAAAAAAAAAAAAAAAAAAAAAAAAAAAAAAAAAAAAAAAAAAAAAAAAAAAAAAAAAAAAAAAAAAAAAAAAAAAAAAAAAAAAAAAAAAAAAAAAAAAAAAAAAAAAAAAAAAAAAAAAAAAAAAAAAAAAAAAAAAAAAAAAAAAAAAAAAAAAAAAAAAAAAAAAAAAAAAAAAAAAAAAAAAAAAAAAAAAAAAAAAAAAAAAAAAAAAAAAAAAAAAAAAAAAAAAAAAAAAAAAAAAAAAAAAAAAAAAAAAAAAAAAAAAAAAAAAAAAAAAAAAAAAAAAAAAAAAAAAAAAAAAAAAAAAAAAAAAAAAAAAAAAAAAAAAAAAAAAAAAAAAAAAAAAAAAAAAAAAAAAAAAAAAAAAAAAAAAAAAAAAAAAAAAAAAAAAAAAAAAAAAAAAAAAAAAAAAAAAAAAAAAAAAAAAAAAAAAAAAAAAAAAAAAAAAAAAAAAAAAAAAAAAAAAAAAAAAAAAAAAAAAAAAAAAAAAAAAAAAAAAAAAAAAAAAAAAAAAAAAAAAAAAAAAAAAAAAAAAAAAAAAAAAAAAAAAAAAAAAAAAAAAAAAAAAAAAAAAAAAAAAAAAAAAAAAAAAAAAAAAAAAAAAAAAAAAAAAAAAAAAAAAAAAAAAAAAAAAAAAAAAAAAAAAAAAAAAAAAAAAAAAAAAAAAAAAAAAAAAAAAAAAAAAAAAAAAAAAAAAAAAAAAAAAAAAAAAAAAAAAAAAAAAAAAAAAAAAAAAAAAAAAAAAAAAAAAAAAAAAAAAAAAAAAAAAAAAAAAAAAAAAAAAAAAAAAAAAAAAAAAAAAAAAAAAAAAAAAAAAAAAAAAAAAAAAAAAAAAAAAAAAAAAAAAAAAAAAAAAAAAAAAAAAAAAAAAAAAAAAAAAAAAAAAAAAAAAAAAAAAAAAAAAAAAAAAAAAAAAAAAAAAAAAAAAAAAAAAAAAAAAAAAAAAAAAAAAAAAAAAAAAAAAAAAAAAAAAAAAAAAAAAAAAAAAAAAAAAAAAAAAAAAAAAAAAAAAAAAAAAAAAAAAAAAAAAAAAAAAAAAAAAAAAAAAAAAAAAAAAAAAAAAAAAAAAAAAAAAAAAAAAAAAAAAAAAAAAAAAAAAAAAAAAAAAAAAAAAAAAAAAAAAAAAAAAAAAAAAAAAAAAAAAAAAAAAAAAAAAAAAAAAAAAAAAAAAAAAAAAAAAAAAAAAAAAAAAAAAAAAAAAAAAAAAAAAAAAAAAAAAAAAAAAAAAAAAAAAAAAAAAAAAAAAAAAAAAAAAAAAAAAAAAAAAAAAAAAAAAAAAAAAAAAAAAAAAAAAAAAAAAAAAAAAAAAAAAAAAAAAAAAAAAAAAAAAAAAAAAAAAAAAAAAAAAAAAAAAAAAAAAAAAAAAAAAAAAAAAAAAAAAAAAAAAAAAAAAAAAAAAAAAAAAAAAAAAAAAAAAAAAAAAAAAAAAAAAAAAAAAAAAAAAAAAAAAAAAAAAAAAAAAAAAAAAAAAAAAAAAAAAAAAAAAAAAAAAAAAAAAAAAAAAAAAAAAAAAAAAAAAAAAAAAAAAAAAAAAAAAAAAAAAAAAAAAAAAAAAAAAAAAAAAAAAAAAAAAAAAAAAAAAAAAAAAAAAAAAAAAAAAAAAAAAAAAAAAAAAAAAAAAAAAAAAAAAAAAAAAAAAAAAAAAAAAAAAAAAAAAAAAAAAAAAAAAAAAAAAAAAAAAAAAAAAAAAAAAAAAAAAAAAAAAAAAAAAAAAAAAAAAAAAAAAAAAAAAAAAAAAAAAAAAAAAAAAAAAAAAAAAAAAAAAAAAAAAAAAAAAAAAAAAAAAAAAAAAAAAAAAAAAAAAAAAAAAAAAAAAAAAAAAAAAAAAAAAAAAAAAAAAAAAAAAAAAAAAAAAAAAAAAAAAAAAAAAAAAAAAAAAAAAAAAAAAAAAAAAAAAAAAAAAAAAAAAAAAAAAAAAAAAAAAAAAAAAAAAAAAAAAAAAAAAAAAAAAAAAAAAAAAAAAAAAAAAAAAAAAAAAAAAAAAAAAAAAAAAAAAAAAAAAAAAAAAAAAAAAAAAAAAAAAAAAAAAAAAAAAAAAAAAAAAAAAAAAAAAAAAAAAAAAAAAAAAAAAAAAAAAAAAAAAAAAAAAAAAAAAAAAAAAAAAAAAAAAAAAAAAAAAAAAAAAAAAAAAAAAAAAAAAAAAAAAAAAAAAAAAAAAAAAAAAAAAAAAAAAAAAAAAAAAAAAAAAAAAAAAAAAAAAAAAAAAAAAAAAAAAAAAAAAAAAAAAAAAAAAAAAAAAAAAAAAAAAAAAAAAAAAAAAAAAAAAAAAAAAAAAAAAAAAAAAAAAAAAAAAAAAAAAAAAAAAAAAAAAAAAAAAAAAAAAAAAAAAAPZYQE5l8c7fLpulw60bFWn8FsIwdhzkKZYZ8/S/HeCQB6nMe8Gabebvg46laVPmYCwW6vi96nFEuRV4WjNIKAgxgSo=</c2pa:manifest></metadata>
  <defs>
    
  </defs>
  <g id="Layer_1-2" data-name="Layer 1">
    <g>
      <path class="cls-1" d="M386.34,0h0C172.97,0,0,172.97,0,386.34h0c0,213.37,172.97,386.34,386.34,386.34h0c213.37,0,386.34-172.97,386.34-386.34h0C772.67,172.97,599.7,0,386.34,0ZM184.74,397.72c5.07,44.75,41.55,81.22,87.51,87.35,30.95,4.13,59.82-5.38,81.09-23.09l30.8,65.46c-27.93,18.27-61.49,28.93-97.53,28.93-100.55,0-181.62-82.75-174.62-181.75,5.84-82.86,74.26-150.37,159.55-157.35,41.62-3.42,80.58,7.47,112.35,28.11.78.47,1.53,1.02,2.31,1.6-3.05,3.8-5.91,7.78-8.62,11.84,0,.04-.04.09-.11.16-8.67,13.18-15.51,27.6-20.16,42.91-1.04,3.31-1.98,6.76-2.76,10.18h-.02c-18.09-15.58-41.91-25.09-67.93-25.09v-.02c-60.33,0-108.64,50.91-101.86,110.75ZM640.35,552.48c-4.91,2.51-10.49,3.91-16.4,3.91s-11.49-1.4-16.4-3.91c-11.42-5.73-19.2-17.31-19.2-30.64,0-6.64,1.93-12.84,5.35-18.16,6.18-9.75,17.22-16.24,29.8-16.4h.44c19.64,0,35.6,15.49,35.6,34.55,0,13.33-7.78,24.91-19.2,30.64ZM616.06,448.12h-.02c-1.98,1.78-120.49,104.35-120.49,104.35h-109.13s180.95-156.42,181.77-157.22l.11-.11c12.49-11.47,20.27-27.71,20.27-45.64,0-34.67-30.47-62.89-64.8-62.89s-62.53,26.04-64.69,58.82h-72.53c.82-28.29,10.82-54.38,27.15-75.53,25.07-32.51,65.09-53.62,110.06-53.62,75.73,0,137.33,59.73,137.33,133.22,0,39.04-17.4,74.24-45.04,98.62Z"></path>
      <g>
        <path class="cls-1" d="M845.29,553.13v-4.81l12.01-4.32c6.4-2.56,11.37-5.68,14.9-9.37,3.52-3.68,6.4-8.89,8.65-15.62l98.99-283.99h40.84l97.55,285.91c2.56,7.05,5.44,12.42,8.65,16.1,3.2,3.69,8.17,6.81,14.9,9.37l5.77,1.92v4.81h-122.05v-4.81l7.21-2.4c6.73-2.56,10.81-6.16,12.25-10.81,1.44-4.64,1.2-10.17-.72-16.58l-22.58-69.19h-106.67l-23.07,67.75c-2.24,7.05-2.97,12.66-2.16,16.82.79,4.17,4.56,7.53,11.29,10.09l10.57,4.32v4.81h-66.31ZM918.33,439.73h100.43l-48.53-149.44-51.9,149.44Z"></path>
        <path class="cls-1" d="M1243.64,560.34c-18.91,0-35.88-4.25-50.93-12.73-15.06-8.48-26.99-21.62-35.8-39.4-8.82-17.78-13.22-40.6-13.22-68.47s4.96-51.49,14.9-69.92c9.93-18.42,23.07-32.19,39.4-41.32,16.34-9.13,34.12-13.69,53.34-13.69,11.21,0,21.94,1.13,32.2,3.36,10.25,2.25,19.38,5.61,27.39,10.09v-62.47c0-6.73-1.04-11.69-3.12-14.9-2.09-3.2-6.49-5.44-13.22-6.73l-9.13-1.92v-4.81l87.45-21.14,5.28,4.32-1.92,67.27v234.97c0,6.41,1.12,11.62,3.36,15.62,2.23,4.01,6.4,6.81,12.49,8.41l4.33,1.44v4.81l-82.17,5.28-4.32-17.3c-8.65,5.77-18.5,10.41-29.55,13.94-11.05,3.52-23.31,5.28-36.76,5.28ZM1271.51,542.56c13.45,0,25.78-4,37-12.01v-190.77c-11.85-7.69-24.03-11.53-36.52-11.53-15.37,0-28.51,8.89-39.4,26.67-10.9,17.78-16.34,45.73-16.34,83.85s5.12,64.95,15.38,80.49c10.25,15.54,23.54,23.3,39.88,23.3Z"></path>
        <path class="cls-1" d="M1508.4,554.57l-85.05-204.22c-4.49-10.89-12.18-18.09-23.06-21.62l-6.73-1.92v-4.81h124.46v4.81l-8.65,1.92c-12.49,3.21-16.34,11.53-11.53,24.99l50.46,134.06,47.09-133.1c2.56-6.4,3.2-11.69,1.92-15.86-1.28-4.16-5.13-7.21-11.53-9.13l-12.01-2.88v-4.81h69.68v4.81l-13.93,3.36c-6.09,1.61-10.81,4.01-14.18,7.21-3.36,3.21-6.17,8.01-8.41,14.41l-70.63,202.78h-27.87Z"></path>
        <path class="cls-1" d="M1646.79,553.13v-4.81l6.73-1.92c6.41-1.92,10.81-4.8,13.22-8.65,2.4-3.84,3.6-8.96,3.6-15.38v-150.4c0-6.73-1.2-11.77-3.6-15.14-2.4-3.36-6.81-5.68-13.22-6.97l-6.73-1.44v-4.8l87.94-28.35,4.81,4.81-1.44,68.23v134.54c0,6.41,1.2,11.53,3.6,15.38,2.4,3.84,6.64,6.73,12.73,8.65l4.8,1.44v4.81h-112.44ZM1703.49,289.81c-10.9,0-20.11-3.44-27.63-10.33-7.53-6.88-11.29-15.62-11.29-26.19s3.76-19.7,11.29-26.43c7.52-6.73,16.73-10.09,27.63-10.09s20.02,3.36,27.39,10.09c7.37,6.73,11.05,15.54,11.05,26.43s-3.69,19.3-11.05,26.19c-7.37,6.89-16.5,10.33-27.39,10.33Z"></path>
        <path class="cls-1" d="M1856.29,560.34c-15.7,0-29.79-1.85-42.29-5.53-12.49-3.68-24.03-8.24-34.6-13.69l.48-57.18h4.8l16.34,28.83c7.04,12.82,14.81,22.34,23.3,28.59,8.48,6.25,19.3,9.37,32.43,9.37,15.38,0,27.79-3.44,37.24-10.33,9.44-6.88,14.17-16.1,14.17-27.63,0-10.57-3.36-19.22-10.09-25.95-6.73-6.73-19.22-12.81-37.48-18.26l-20.18-6.25c-19.54-5.77-34.92-14.73-46.13-26.91-11.22-12.17-16.82-27.07-16.82-44.69,0-21.14,8.33-39.08,24.99-53.82,16.65-14.73,40.52-22.1,71.6-22.1,12.49,0,24.27,1.37,35.32,4.08,11.05,2.73,21.7,6.81,31.96,12.25l-2.88,51.9h-4.81l-16.82-29.79c-6.09-10.57-12.1-18.02-18.02-22.34-5.93-4.32-14.82-6.49-26.67-6.49-10.9,0-21.14,3.05-30.75,9.13-9.61,6.09-14.41,14.74-14.41,25.95s4.09,19.54,12.25,25.95c8.17,6.41,20.26,12.34,36.28,17.78l21.62,6.25c23.06,7.05,39.56,16.74,49.49,29.07,9.92,12.34,14.9,27.15,14.9,44.45,0,23.39-9.21,42.13-27.63,56.22-18.42,14.09-44.29,21.14-77.6,21.14Z"></path>
        <path class="cls-1" d="M2097.02,560.34c-24.35,0-45.49-5.04-63.43-15.14-17.94-10.09-31.79-24.42-41.56-43.01-9.78-18.58-14.66-40.36-14.66-65.35s5.2-46.61,15.62-64.87c10.41-18.26,24.67-32.35,42.77-42.29,18.09-9.93,38.52-14.9,61.26-14.9s43.08,4.89,61.03,14.66c17.94,9.78,32.11,23.79,42.53,42.05,10.41,18.26,15.62,40.05,15.62,65.35s-4.89,47.17-14.66,65.59c-9.78,18.42-23.55,32.67-41.33,42.77-17.78,10.09-38.85,15.14-63.19,15.14ZM2097.02,550.73c11.21,0,20.18-3.2,26.91-9.61,6.73-6.4,11.61-17.78,14.66-34.12,3.04-16.34,4.57-39.4,4.57-69.19s-1.53-53.34-4.57-69.68c-3.05-16.34-7.93-27.71-14.66-34.12-6.73-6.4-15.7-9.61-26.91-9.61s-20.26,3.21-27.15,9.61c-6.89,6.41-11.85,17.78-14.9,34.12-3.05,16.34-4.56,39.57-4.56,69.68s1.52,52.86,4.56,69.19c3.04,16.34,8,27.71,14.9,34.12,6.89,6.41,15.93,9.61,27.15,9.61Z"></path>
        <path class="cls-1" d="M2222.92,553.13v-4.81l7.21-1.92c6.41-1.92,10.81-4.8,13.22-8.65,2.4-3.84,3.6-8.81,3.6-14.9v-150.4c0-7.04-1.2-12.25-3.6-15.62-2.4-3.36-6.81-5.68-13.22-6.97l-7.21-1.92v-4.81l82.65-27.87,4.81,4.81,4.32,41.33v3.84c4.48-8.96,10.33-17.22,17.54-24.75,7.21-7.52,15.21-13.69,24.03-18.5,8.81-4.81,17.54-7.21,26.19-7.21,12.17,0,21.46,3.36,27.87,10.09,6.41,6.73,9.61,15.22,9.61,25.47,0,10.89-3.12,19.3-9.37,25.23-6.25,5.93-13.69,8.89-22.34,8.89-13.46,0-25.31-6.73-35.56-20.18l-.96-.96c-3.21-4.48-6.89-6.97-11.05-7.45-4.17-.48-8.01,1.53-11.53,6.01-3.21,2.88-5.85,6.33-7.93,10.33-2.09,4.01-4.09,8.58-6.01,13.69v134.06c0,12.82,5.6,20.83,16.82,24.03l15.38,4.32v4.81h-124.45Z"></path>
        <path class="cls-1" d="M2485.11,668.45c-12.82,0-22.99-3.21-30.51-9.61-7.53-6.41-11.29-14.58-11.29-24.51,0-8.97,3.2-16.18,9.61-21.62,6.4-5.45,13.61-8.17,21.62-8.17s14.73,1.68,20.18,5.04c5.44,3.36,10.25,8.24,14.41,14.66l3.36,3.84c7.04,9.61,14.09,9.45,21.14-.48,2.88-4.8,6.16-11.13,9.85-18.98,3.68-7.85,7.93-18.34,12.73-31.47l-93.22-222.96c-2.24-6.08-4.65-10.97-7.21-14.66-2.57-3.68-6.73-6.8-12.49-9.37l-8.65-3.36v-4.81h119.65v4.32l-9.61,3.84c-7.05,2.25-10.65,5.85-10.81,10.81-.16,4.97,1.04,11.13,3.6,18.5l49.97,129.74,47.57-131.18c2.56-7.37,3.52-13.53,2.88-18.5-.65-4.96-4.65-8.41-12.01-10.33l-10.09-2.4v-4.81h66.79v4.81l-10.57,3.36c-7.37,2.25-12.49,5.45-15.38,9.61-2.88,4.17-5.61,9.93-8.17,17.3l-77.37,210.95c-12.49,33.64-24.98,58.78-37.48,75.44-12.49,16.65-28.67,24.99-48.53,24.99Z"></path>
      </g>
    </g>
  </g>
</svg>